<svg width="32" height="32" viewBox="0 0 32 32" xmlns="http://www.w3.org/2000/svg">
  <!-- Background gradient -->
  <defs>
    <linearGradient id="bgGradient" x1="0%" y1="0%" x2="100%" y2="100%">
      <stop offset="0%" style="stop-color:#667eea;stop-opacity:1" />
      <stop offset="100%" style="stop-color:#764ba2;stop-opacity:1" />
    </linearGradient>
    <linearGradient id="balloonGradient" x1="0%" y1="0%" x2="100%" y2="100%">
      <stop offset="0%" style="stop-color:#ff6b6b;stop-opacity:1" />
      <stop offset="100%" style="stop-color:#ee5a24;stop-opacity:1" />
    </linearGradient>
    <linearGradient id="starGradient" x1="0%" y1="0%" x2="100%" y2="100%">
      <stop offset="0%" style="stop-color:#ffd700;stop-opacity:1" />
      <stop offset="100%" style="stop-color:#ffed4e;stop-opacity:1" />
    </linearGradient>
  </defs>
  
  <!-- Background circle -->
  <circle cx="16" cy="16" r="16" fill="url(#bgGradient)"/>
  
  <!-- Balloon -->
  <ellipse cx="16" cy="14" rx="6" ry="8" fill="url(#balloonGradient)"/>
  <line x1="16" y1="22" x2="16" y2="26" stroke="#ff6b6b" stroke-width="1.5" stroke-linecap="round"/>
  
  <!-- Stars -->
  <g fill="url(#starGradient)">
    <!-- Top star -->
    <polygon points="8,6 9,8 11,8 9.5,10 10,12 8,11 6,12 6.5,10 5,8 7,8" transform="scale(0.6)"/>
    <!-- Bottom star -->
    <polygon points="24,20 25,22 27,22 25.5,24 26,26 24,25 22,26 22.5,24 21,22 23,22" transform="scale(0.5)"/>
    <!-- Left star -->
    <polygon points="6,18 7,20 9,20 7.5,22 8,24 6,23 4,24 4.5,22 3,20 5,20" transform="scale(0.4)"/>
    <!-- Right star -->
    <polygon points="26,10 27,12 29,12 27.5,14 28,16 26,15 24,16 24.5,14 23,12 25,12" transform="scale(0.4)"/>
  </g>
  
  <!-- Sparkles -->
  <g fill="#ffffff" opacity="0.8">
    <circle cx="12" cy="8" r="0.8"/>
    <circle cx="20" cy="6" r="0.6"/>
    <circle cx="6" cy="14" r="0.7"/>
    <circle cx="26" cy="18" r="0.5"/>
    <circle cx="10" cy="24" r="0.6"/>
    <circle cx="22" cy="26" r="0.7"/>
  </g>
  
  <!-- Balloon highlight -->
  <ellipse cx="14" cy="12" rx="2" ry="3" fill="#ffffff" opacity="0.3"/>
</svg>
